<svg id="Layer_1" data-name="Layer 1" xmlns="http://www.w3.org/2000/svg" xmlns:xlink="http://www.w3.org/1999/xlink" viewBox="0 0 70 64"><defs><style>.cls-1{fill:none;}.cls-2{clip-path:url(#clip-path);}.cls-3{clip-path:url(#clip-path-2);}</style><clipPath id="clip-path"><path class="cls-1" d="M50.8,28.09h3.9l2.42,6.33V28.09h2.45v8.32H55.92l-2.79-6.54v6.54H50.8V28.09Zm-6.87,0h3.43l3,8.32H47.92l-.44-1.55H43.93l-.44,1.55H41.05Zm-3.44,0V30H35.83V31.3h2.43c2,0,3,.83,3,2.57a2.52,2.52,0,0,1-.76,1.87,2.14,2.14,0,0,1-1.66.67H33.74V34.54h5.09V33.2H36.27a2.83,2.83,0,0,1-2.33-.9,2.9,2.9,0,0,1-.55-1.88,2.12,2.12,0,0,1,.67-1.78,2.23,2.23,0,0,1,1.66-.55Zm-13.19,0h4.77V30H27.42V31.3h2.42c2,0,3,.83,3,2.57a2.77,2.77,0,0,1-.67,1.87,2.54,2.54,0,0,1-1.66.67H25.18V34.54h5.21V33.2H27.85a3,3,0,0,1-2.12-.67,2.91,2.91,0,0,1-.64-2.11c0-.9.16-1.5.53-1.78A2.25,2.25,0,0,1,27.3,28.09Zm-16.1,0H15l2.53,6.33V28.09h2.33v8.32H16.19l-2.66-6.54v6.54H11.2Zm10.22,0h2.33v8.32H21.42ZM9.89,25a1.51,1.51,0,0,0-1.11.44,1.7,1.7,0,0,0-.57,1.23V37.87A1.55,1.55,0,0,0,8.67,39a1.6,1.6,0,0,0,1.22.56h50.9a1.48,1.48,0,0,0,1.1-.56,1.22,1.22,0,0,0,.47-1.11V26.63a1.74,1.74,0,0,0-.47-1.23,1.51,1.51,0,0,0-1.1-.44Z"/></clipPath><clipPath id="clip-path-2"><polygon class="cls-1" points="44.31 32.81 46.56 32.81 45.43 29.45 44.31 32.81"/></clipPath></defs><title>nissan logo</title><g class="cls-2"><rect x="3.69" y="20.45" width="63.17" height="23.6"/></g><g class="cls-3"><rect x="39.79" y="24.93" width="11.28" height="12.39"/></g><path d="M35.28,13.08A19.21,19.21,0,0,1,53.54,26.41h4.7a23.69,23.69,0,0,0-45.92,0H17A19.21,19.21,0,0,1,35.28,13.08Zm0,38.34A19.18,19.18,0,0,1,17.13,38.37H12.4a23.69,23.69,0,0,0,45.76,0H53.43A19.18,19.18,0,0,1,35.28,51.42Z"/></svg>
